<svg id="Layer_1" data-name="Layer 1" xmlns="http://www.w3.org/2000/svg" viewBox="0 0 185.17 33.58"><defs><style>.cls-1{fill:#fff;}.cls-2{fill:none;stroke:#eebc83;stroke-miterlimit:10;}</style></defs><path class="cls-1" d="M0,24a3,3,0,0,0,2.61-1.31,8,8,0,0,0,.84-4.26V4.59A4.63,4.63,0,0,0,3.3,3.2a.92.92,0,0,0-.56-.58,5,5,0,0,0-1.33-.2v-.5C2.12,2,3.18,2,4.59,2s2.46,0,3.25-.07v.5a4.87,4.87,0,0,0-1.32.2A.91.91,0,0,0,6,3.2,4.63,4.63,0,0,0,5.8,4.59v9.23c0,1.43,0,2.69-.08,3.79a14.47,14.47,0,0,1-.35,2.79,5.32,5.32,0,0,1-1.85,3A5.41,5.41,0,0,1,0,24.51Z"/><path class="cls-1" d="M9.92,19.15a3,3,0,0,1-.77-2.21,2.8,2.8,0,0,1,.62-1.86,4.55,4.55,0,0,1,1.46-1.16A18.33,18.33,0,0,1,13.46,13a11.8,11.8,0,0,0,2.1-.88A1.23,1.23,0,0,0,16.24,11V9.48a2.6,2.6,0,0,0-.62-2,2.5,2.5,0,0,0-1.73-.55,3,3,0,0,0-2.49.91,1.64,1.64,0,0,1,.84.53,1.51,1.51,0,0,1,.34,1,1.29,1.29,0,0,1-.4,1,1.51,1.51,0,0,1-1,.36,1.26,1.26,0,0,1-1.05-.44,1.63,1.63,0,0,1-.36-1.07,1.72,1.72,0,0,1,.29-1,3.84,3.84,0,0,1,.87-.81,5.37,5.37,0,0,1,1.54-.7,6.94,6.94,0,0,1,2-.28,4.26,4.26,0,0,1,3,.93,2.86,2.86,0,0,1,.84,1.4,8.48,8.48,0,0,1,.22,2.16v7a1.81,1.81,0,0,0,.17.9.66.66,0,0,0,.61.28,1.15,1.15,0,0,0,.57-.14,3.19,3.19,0,0,0,.56-.39l.28.43a6,6,0,0,1-1.12.72,2.85,2.85,0,0,1-1.17.21,2,2,0,0,1-1.69-.6,2.56,2.56,0,0,1-.48-1.64,4.42,4.42,0,0,1-1.74,1.75,4.89,4.89,0,0,1-2.22.49A3.14,3.14,0,0,1,9.92,19.15ZM16.24,17V12.08a1.77,1.77,0,0,1-.63.58c-.27.15-.68.35-1.24.6a12.39,12.39,0,0,0-1.55.77,3.59,3.59,0,0,0-1,1,2.78,2.78,0,0,0-.43,1.61,2.41,2.41,0,0,0,.56,1.72,1.94,1.94,0,0,0,1.46.58A3.38,3.38,0,0,0,16.24,17Z"/><path class="cls-1" d="M33.51,18.86a1.82,1.82,0,0,0,.91.38v.53c-1-.07-1.69-.1-2.05-.1s-1.38,0-2.79.1v-.53a1,1,0,0,0,.56-.14.4.4,0,0,0,.22-.34.59.59,0,0,0-.15-.38l-2.9-4.23a2.67,2.67,0,0,0-.82-.85A2.66,2.66,0,0,0,25.42,13v4.38a2.14,2.14,0,0,0,.36,1.43,1.74,1.74,0,0,0,1.3.39v.53c-1.41-.07-2.35-.1-2.8-.1s-1.5,0-3.05.1v-.53a2.22,2.22,0,0,0,1.49-.39,1.92,1.92,0,0,0,.43-1.43V3a2.7,2.7,0,0,0-.43-1.69A1.8,1.8,0,0,0,21.23.81V.28c.54,0,1.06.07,1.56.07A8.17,8.17,0,0,0,25.42,0V12.51a4.21,4.21,0,0,0,1.22-.34,3.54,3.54,0,0,0,.94-.7l1.87-1.94a2.28,2.28,0,0,0,.81-1.39.7.7,0,0,0-.52-.64,3.61,3.61,0,0,0-1.35-.21V6.78c1.18.07,2.13.1,2.85.1a21.23,21.23,0,0,0,2.19-.1v.51a3.49,3.49,0,0,0-2.27,1.18L28.09,11.7l4.56,6.23A5.39,5.39,0,0,0,33.51,18.86Z"/><path class="cls-1" d="M46.77,17.05a2.62,2.62,0,0,0,.43,1.68,1.8,1.8,0,0,0,1.49.53v.53c-.52-.05-1-.07-1.57-.07a8.14,8.14,0,0,0-2.62.35v-3a4.62,4.62,0,0,1-1.71,2.29,4.3,4.3,0,0,1-2.42.73,3.45,3.45,0,0,1-2.63-1,2.92,2.92,0,0,1-.64-1.28,9.22,9.22,0,0,1-.19-2V9.53a2.66,2.66,0,0,0-.43-1.69A1.81,1.81,0,0,0,35,7.31V6.78c.52,0,1,.08,1.56.08a8.39,8.39,0,0,0,2.62-.35v9.9A8.23,8.23,0,0,0,39.3,18a1.7,1.7,0,0,0,.53,1,1.84,1.84,0,0,0,1.27.37,2.78,2.78,0,0,0,1.74-.6,4,4,0,0,0,1.22-1.65,6,6,0,0,0,.44-2.31V9.53a2.66,2.66,0,0,0-.43-1.69,1.81,1.81,0,0,0-1.48-.53V6.78c.52,0,1,.08,1.56.08a8.39,8.39,0,0,0,2.62-.35Z"/><path class="cls-1" d="M60.93,8.19a8.42,8.42,0,0,1,1.32,5.1A8.47,8.47,0,0,1,61.5,17a5.46,5.46,0,0,1-2,2.32,5.34,5.34,0,0,1-2.84.78,4.6,4.6,0,0,1-3.33-1.46l-1.79,1.51L51.08,20a5.25,5.25,0,0,0,.18-1.46V3.05a2.67,2.67,0,0,0-.43-1.69A1.83,1.83,0,0,0,49.34.83V.3c.54,0,1.06.08,1.57.08A8.39,8.39,0,0,0,53.53,0v9.1a4.42,4.42,0,0,1,1.6-2,4.08,4.08,0,0,1,2.33-.71A4.15,4.15,0,0,1,60.93,8.19ZM59,18a10.07,10.07,0,0,0,.85-4.73,10.6,10.6,0,0,0-.76-4.59,2.45,2.45,0,0,0-2.32-1.51A2.79,2.79,0,0,0,54.79,8a4.53,4.53,0,0,0-1.26,2.3v8a3.87,3.87,0,0,0,1.34.92,4,4,0,0,0,1.56.31A2.73,2.73,0,0,0,59,18Z"/><path class="cls-1" d="M84.34,4.15q2.22,2.23,2.22,6.49a10.17,10.17,0,0,1-1.09,4.82,7.58,7.58,0,0,1-3.13,3.19,10.2,10.2,0,0,1-4.91,1.12l-1.46,0c-.94,0-1.63,0-2.07,0-1.38,0-2.42,0-3.13.08v-.51a5,5,0,0,0,1.33-.2.89.89,0,0,0,.57-.58,4.55,4.55,0,0,0,.15-1.38V4.59a4.63,4.63,0,0,0-.15-1.39.91.91,0,0,0-.57-.58,5,5,0,0,0-1.33-.2v-.5c.59.05,1.41.07,2.45.07l2.14,0c1.15,0,1.91-.05,2.3-.05Q82.12,1.92,84.34,4.15Zm-8.48-1.6a1,1,0,0,0-.55.63,4.58,4.58,0,0,0-.15,1.36V17.15a4.63,4.63,0,0,0,.15,1.36,1,1,0,0,0,.55.63,3,3,0,0,0,1.19.17,7.81,7.81,0,0,0,4.21-1,5.09,5.09,0,0,0,2.16-2.83A15.51,15.51,0,0,0,84,10.74,13.89,13.89,0,0,0,83.36,6a5.13,5.13,0,0,0-2.21-2.73A8,8,0,0,0,77,2.37,2.92,2.92,0,0,0,75.86,2.55Z"/><path class="cls-1" d="M99,8.13a7.39,7.39,0,0,1,1.58,5.16A7.3,7.3,0,0,1,99,18.43a5.93,5.93,0,0,1-8.29,0,7.3,7.3,0,0,1-1.58-5.14,7.39,7.39,0,0,1,1.58-5.16,5.9,5.9,0,0,1,8.29,0Zm-6.54.35a10.08,10.08,0,0,0-.88,4.81,10,10,0,0,0,.88,4.79,2.63,2.63,0,0,0,4.79,0,10,10,0,0,0,.88-4.79,10.08,10.08,0,0,0-.88-4.81,2.63,2.63,0,0,0-4.79,0Z"/><path class="cls-1" d="M113.45,8.19a8.42,8.42,0,0,1,1.32,5.1A8.47,8.47,0,0,1,114,17a5.46,5.46,0,0,1-2,2.32,5.34,5.34,0,0,1-2.84.78,4.6,4.6,0,0,1-3.33-1.46L104,20.17,103.6,20a5.25,5.25,0,0,0,.18-1.46V3.05a2.67,2.67,0,0,0-.43-1.69,1.82,1.82,0,0,0-1.49-.53V.3c.54,0,1.06.08,1.57.08A8.39,8.39,0,0,0,106.05,0v9.1a4.42,4.42,0,0,1,1.6-2A4.1,4.1,0,0,1,110,6.43,4.15,4.15,0,0,1,113.45,8.19Zm-2,9.83a10.07,10.07,0,0,0,.85-4.73,10.6,10.6,0,0,0-.76-4.59,2.45,2.45,0,0,0-2.32-1.51,2.79,2.79,0,0,0-1.94.82,4.53,4.53,0,0,0-1.26,2.3v8a4,4,0,0,0,2.9,1.23A2.73,2.73,0,0,0,111.48,18Z"/><path class="cls-1" d="M126.18,7a1.83,1.83,0,0,1,.64,1.41,1.68,1.68,0,0,1-.39,1.12,1.3,1.3,0,0,1-1,.47,1.39,1.39,0,0,1-1-.35,1.24,1.24,0,0,1-.39-1,1.56,1.56,0,0,1,.86-1.36.61.61,0,0,0-.53-.25,2.54,2.54,0,0,0-1.79.76,5.36,5.36,0,0,0-1.26,1.88,5.62,5.62,0,0,0-.46,2.1v5.34a1.82,1.82,0,0,0,.67,1.61,3.56,3.56,0,0,0,2,.46v.53l-.61,0c-1.71,0-2.81-.07-3.28-.07s-1.42,0-3,.1v-.53a2.24,2.24,0,0,0,1.49-.39,1.92,1.92,0,0,0,.43-1.43V9.53a2.72,2.72,0,0,0-.43-1.69,1.85,1.85,0,0,0-1.49-.53V6.78c.54,0,1.06.08,1.56.08a8.34,8.34,0,0,0,2.62-.35V9.66a6.17,6.17,0,0,1,1.45-2.25,3.11,3.11,0,0,1,2.21-1A2.36,2.36,0,0,1,126.18,7Z"/><path class="cls-1" d="M131,19.39h2.77a3.13,3.13,0,0,0,2.45-1,5.19,5.19,0,0,0,1.06-3.09h.58c0,2.2,0,3.72.1,4.54-1.33-.07-2.89-.1-4.69-.1-1.6,0-3.3,0-5.09.12l7.28-12.73h-2.77a3.15,3.15,0,0,0-2.51.95,5.4,5.4,0,0,0-1,3.11h-.58c0-2.2,0-3.71-.1-4.54,1.33.07,2.89.1,4.69.1q2.4,0,5.1-.12Z"/><path class="cls-1" d="M151.64,6.78v.51a1.39,1.39,0,0,0-.9.45A4,4,0,0,0,150,9.05l-4.14,10.84-.86,2.2a4.51,4.51,0,0,1-1.08,1.76,2.15,2.15,0,0,1-.91.51,3.82,3.82,0,0,1-1.06.15,1.89,1.89,0,0,1-1.23-.4,1.38,1.38,0,0,1-.48-1.11,1.34,1.34,0,0,1,.35-1,1.29,1.29,0,0,1,1-.37,1.38,1.38,0,0,1,.92.31,1.1,1.1,0,0,1,.36.87,1.23,1.23,0,0,1-.68,1.14.3.3,0,0,0,.15,0c.93,0,1.64-.65,2.14-2l.89-2.3-4.57-11a2.81,2.81,0,0,0-.85-1.13,1.56,1.56,0,0,0-.86-.28V6.78a18.19,18.19,0,0,0,2.47.15c.84,0,1.93,0,3.28-.15v.53a4.27,4.27,0,0,0-1.33.15.69.69,0,0,0-.41.73,3.23,3.23,0,0,0,.3,1.24l3,7.51,2.79-7.28a3.61,3.61,0,0,0,.28-1.16.94.94,0,0,0-.45-.86,3.42,3.42,0,0,0-1.44-.35V6.78c.89,0,1.6.08,2.12.08C150.46,6.86,151.1,6.83,151.64,6.78Z"/><path class="cls-1" d="M161.62,7.24a2.28,2.28,0,0,1,1.19,1.94,1.39,1.39,0,0,1-.38,1,1.3,1.3,0,0,1-1,.38,1.43,1.43,0,0,1-1-.34,1.14,1.14,0,0,1-.41-.92,1.4,1.4,0,0,1,.3-.9,1.59,1.59,0,0,1,.76-.49,1.88,1.88,0,0,0-.89-.75,3.1,3.1,0,0,0-1.38-.31,2.87,2.87,0,0,0-1.74.6,4.21,4.21,0,0,0-1.33,2,10.14,10.14,0,0,0-.53,3.62,7.94,7.94,0,0,0,1,4.55A3.07,3.07,0,0,0,158.9,19a3.71,3.71,0,0,0,2-.63,4.59,4.59,0,0,0,1.6-2l.48.18a5.25,5.25,0,0,1-1.6,2.47,4.41,4.41,0,0,1-3,1,5.14,5.14,0,0,1-2.83-.81,5.43,5.43,0,0,1-2-2.33,8.05,8.05,0,0,1-.73-3.54,8.56,8.56,0,0,1,.74-3.63,6,6,0,0,1,2.08-2.49,5.44,5.44,0,0,1,3.06-.89A5.2,5.2,0,0,1,161.62,7.24Z"/><path class="cls-1" d="M176.7,18.86a1.82,1.82,0,0,0,.91.38v.53c-1-.07-1.69-.1-2.05-.1s-1.38,0-2.8.1v-.53a1,1,0,0,0,.57-.14.42.42,0,0,0,.22-.34.59.59,0,0,0-.15-.38l-2.9-4.23a2.67,2.67,0,0,0-.82-.85A2.67,2.67,0,0,0,168.6,13v4.38a2.14,2.14,0,0,0,.37,1.43,1.74,1.74,0,0,0,1.3.39v.53c-1.41-.07-2.35-.1-2.8-.1s-1.5,0-3.05.1v-.53a2.22,2.22,0,0,0,1.49-.39,1.92,1.92,0,0,0,.43-1.43V3a2.7,2.7,0,0,0-.43-1.69,1.8,1.8,0,0,0-1.49-.53V.28c.54,0,1.06.07,1.56.07A8.1,8.1,0,0,0,168.6,0V12.51a4.2,4.2,0,0,0,1.23-.34,3.54,3.54,0,0,0,.94-.7l1.87-1.94a2.28,2.28,0,0,0,.81-1.39.7.7,0,0,0-.52-.64,3.68,3.68,0,0,0-1.35-.21V6.78c1.18.07,2.13.1,2.85.1a21.23,21.23,0,0,0,2.19-.1v.51a3.49,3.49,0,0,0-2.27,1.18l-3.07,3.23,4.56,6.23A5.39,5.39,0,0,0,176.7,18.86Z"/><path class="cls-1" d="M182.7,17.42a1.88,1.88,0,0,0,.43,1.43,2.2,2.2,0,0,0,1.49.39v.53c-1.55-.07-2.57-.1-3.06-.1s-1.5,0-3.05.1v-.53a2.2,2.2,0,0,0,1.49-.39,1.88,1.88,0,0,0,.43-1.43V9.53A2.66,2.66,0,0,0,180,7.84a1.82,1.82,0,0,0-1.49-.53V6.78c.54,0,1.06.08,1.57.08a8.39,8.39,0,0,0,2.62-.35ZM182.52,1A1.55,1.55,0,0,1,183,2.09a1.56,1.56,0,0,1-.48,1.14,1.58,1.58,0,0,1-2.27,0,1.56,1.56,0,0,1-.48-1.14A1.55,1.55,0,0,1,180.25,1a1.58,1.58,0,0,1,2.27,0Z"/><path class="cls-1" d="M65,27.52A1.83,1.83,0,0,1,67,29.32c0,1.1-.82,1.79-2.07,1.79h-.77v2.18h-1V27.52Zm-.77.86v1.87H65c.67,0,1.11-.31,1.11-.93s-.44-.94-1.11-.94Z"/><path class="cls-1" d="M72.25,27.52v5.77h-1V27.52Z"/><path class="cls-1" d="M80.09,31.81H78l-.66,1.48h-1.1L79,27.21l2.82,6.08h-1.1ZM78.24,31h1.57L79,29.16Z"/><path class="cls-1" d="M91,27.52v6.06l-4.21-4.15v3.86h-1V27.23L90,31.39V27.52Z"/><path class="cls-1" d="M96.53,27.52v5.77h-1V27.52Z"/><path class="cls-1" d="M103,32.54c.58,0,.87-.29.87-.79s-.62-.88-1.28-1.13-1.5-.55-1.5-1.65a1.63,1.63,0,0,1,1.84-1.55,2,2,0,0,1,1.9,1.25l-.77.47a1.35,1.35,0,0,0-1.18-.84c-.5,0-.77.26-.77.68s.63.74,1.33,1a1.87,1.87,0,0,1,1.46,1.74A1.72,1.72,0,0,1,103,33.42a2.37,2.37,0,0,1-2.19-1.59l.75-.48C101.89,32.1,102.31,32.54,103,32.54Z"/><path class="cls-1" d="M108.6,27.52h4v.9h-1.51v4.87h-1V28.42H108.6Z"/><path class="cls-1" d="M119.07,31.81H117l-.66,1.48h-1.11L118,27.21l2.82,6.08h-1.1ZM117.22,31h1.56L118,29.16Z"/><line class="cls-2" y1="30.4" x2="47.34" y2="30.4"/><line class="cls-2" x1="137.83" y1="30.4" x2="185.17" y2="30.4"/></svg>